<svg xmlns="http://www.w3.org/2000/svg" xmlns:xlink="http://www.w3.org/1999/xlink" viewBox="0 0 380.01 399.74"><defs><linearGradient id="linear-gradient" x1="327.09" y1="153.03" x2="379.91" y2="153.03" gradientUnits="userSpaceOnUse"><stop offset="0" stop-color="#2e2e2e"/><stop offset="1"/></linearGradient><linearGradient id="linear-gradient-2" x1="110.38" y1="153.09" x2="327.4" y2="153.09" xlink:href="#linear-gradient"/><linearGradient id="linear-gradient-3" x1="34.35" y1="153.13" x2="144.66" y2="153.13" xlink:href="#linear-gradient"/></defs><title>JDI_LOGO Asset 1</title><g id="Layer_2" data-name="Layer 2"><g id="Layer_1-2" data-name="Layer 1"><path d="M9.72,340.74h10c-4.31,6.15-8.92,18.43-8.92,29.47s4.61,23.35,8.92,29.53h-10a49.63,49.63,0,0,1,0-59Z" style="fill:#231f20"/><path d="M75.65,374.52H54.12V393.1h-8.8V374.52H24.16v-7.08H75.65Zm-31-28.24H28.77v-6.83H71.1v6.83H55.26c.92,4.92,6.21,10.09,18.18,11.44l-3.26,6.95c-10.12-1.29-16.89-5.35-20.27-10.82-3.36,5.47-10.06,9.53-20.15,10.82l-3.26-6.95C38.28,356.37,43.63,351.2,44.65,346.28Z" style="fill:#231f20"/><path d="M90.09,399.74h-10c4.31-6.18,8.92-18.45,8.92-29.53s-4.61-23.32-8.92-29.47h10a49.63,49.63,0,0,1,0,59Z" style="fill:#231f20"/><path d="M117.45,351.45v-2.28h-8.74V342.1H134v7.07h-8v2.28c0,9.26,2.43,18.64,10.83,23.44l-5.11,6.46c-4.89-2.83-8-7.51-9.9-13.14-1.91,6.15-5.14,11.38-10.09,14.43l-5.29-6.52C114.87,370.89,117.48,360.8,117.45,351.45Zm12.61,4.24h6.77V337.42h8.24v53.16h-8.24V362.77h-6.77ZM156.7,393.1h-8.37V336.62h8.37Z" style="fill:#231f20"/><path d="M180.55,340.5c8.58,0,15,7.81,15,20.18,0,12.55-6.43,20.36-15,20.36s-15.13-7.81-15.13-20.36C165.42,348.31,171.85,340.47,180.55,340.5Zm0,32.48c3.85,0,6.43-4.09,6.46-12.3s-2.61-12.22-6.46-12.19S174,352.62,174,360.68,176.58,373,180.55,373Zm30.83,20.24h-8.93v-56.6h8.93Z" style="fill:#231f20"/><path d="M223.54,341.48H251.1v7.14H232.33v23.87c9.79,0,15.72-.28,22.4-1.48l.8,7.2c-7.45,1.51-14.58,1.75-27.07,1.72h-4.92Zm44,51.74h-8.92v-56.6h8.92Z" style="fill:#231f20"/><path d="M306.7,360.68c-.07,12.55-6.43,20.36-15.08,20.36s-15.19-7.81-15.13-20.36c-.06-12.37,6.37-20.21,15.13-20.18S306.63,348.31,306.7,360.68ZM291.62,373c4,0,6.55-4.09,6.59-12.3s-2.62-12.22-6.59-12.19-6.58,4.13-6.52,12.19S287.69,373,291.62,373Zm20.67-36.36h8.86v20.92h8v7.32h-8V393.1h-8.86Z" style="fill:#231f20"/><path d="M349.19,340.5c8.58,0,15,7.81,15,20.18,0,12.55-6.43,20.36-15,20.36s-15.14-7.81-15.14-20.36C334.05,348.31,340.48,340.47,349.19,340.5Zm0,32.48c3.84,0,6.43-4.09,6.46-12.3s-2.62-12.22-6.46-12.19-6.58,4.13-6.52,12.19S345.22,373,349.19,373ZM380,393.22h-8.92v-56.6H380Z" style="fill:#231f20"/><path d="M153.15,54V52.32h0Z" style="fill:none"/><path d="M327.26,218.16v87.9h51.33c.44,0,.88,0,1.32-.06V0H327.35c0,.52-.06,1-.06,1.55q0,26,0,52c0,.83,0,1.65,0,2.48h0q0,15.49-.11,31c0,.31,0,.61-.07,1.23Z" style="fill:url(#linear-gradient)"/><path d="M327.23,218.15h0c-.92,1.83-1.81,3.68-2.78,5.48-19.3,35.81-48,60.69-86.4,74.29a140.29,140.29,0,0,1-32.74,7.31,152.92,152.92,0,0,1-15.43.84c-25.92.09-51.84,0-77.76,0h-1.74c.47-.39.71-.61,1-.8a190,190,0,0,0,57.78-68.57,183.62,183.62,0,0,0,17-52c.31-1.81.71-3.61.85-5.44.09-1.13.56-1.25,1.5-1.24,3.72,0,7.44,0,11.16,0H238.5a238.22,238.22,0,0,1-18.65,70.69l.21.26c3.28-1.32,6.63-2.47,9.81-4,29.6-14,48.68-36.83,56.9-68.55a93.43,93.43,0,0,0,2.3-33.07c-2.37-23.33-11.78-43.4-28-60.33a97.76,97.76,0,0,0-25.25-19,95.75,95.75,0,0,0-28.73-10q-5.62-.94-11.32-1.43c-3.14-.27-6.3-.28-9.45-.29-10.56,0-21.12,0-31.68,0h-1.52V.05h44.18a4.42,4.42,0,0,0,.84.24c2.38.18,4.78.19,7.13.54,5.21.77,10.42,1.54,15.57,2.61a144.54,144.54,0,0,1,43.55,16.72,154.11,154.11,0,0,1,62.35,67c.15.3.32.58.63,1.13Z" style="fill:url(#linear-gradient-2)"/><path d="M.05.05V52.23H100.88V153.41a92.5,92.5,0,0,1-3.31,25.1C89,209.06,70.26,231.15,41.65,244.79a94.33,94.33,0,0,1-37,9c-1.5.06-3,0-4.53,0v52.42c3.28-.14,6.47-.24,9.66-.41A138,138,0,0,0,38,301.35c33.28-8.8,60.73-26.66,82.07-53.63,21.87-27.64,32.87-59.25,33-94.5.14-32.6,0-65.2,0-97.8v-3.1h0V.05Z" style="fill:url(#linear-gradient-3)"/></g></g></svg>